:SAMPLES-PER-SECOND 30
:FULLY-SPECIFIED
:DEGREES
245
root  10.6311 33.0407 -1.30286 -17.4876 -78.4687 19.0949
RightUpLeg  -45.6622 4.23404 -2.54615
RightLeg  66.3945 -5.2591 -13.6423
RightFoot  -17.0997 0.11933 4.67084
RightToes  5.82063e-011 0 -3.6325e-017
Spine  46.7187 -1.44861 8.78839
Spine1  -3.52662 5.17444 -13.3742
HEad  -48.4717 -19.2392 12.1361
LeftShoulder1  -0.0665878 2.61129 18.0368
LeftArm  87.5507 -76.3325 -166.527
LeftForeArm  143.69 -77.5301 -130.944
LeftHand  -0.889694 1.76636 28.2078
RightShoulder  -0.529396 3.39563 -18.5519
RightArm  -9.4325 85.978 66.2789
RightForeArm  24.2239 -6.66302 4.84149
RightHand  0.39498 -8.56681 -15.2183
LeftUpLeg  -43.861 -5.53109 -7.44635
LeftLeg  63.3954 4.83305 11.0866
LeftFoot  -19.098 -0.213121 -4.84133
LeftToes  -1.1369e-010 2.7689e-011 -1.90827e-011
246
root  10.7772 34.3251 -0.781119 -20.2641 -81.1128 23.9373
RightUpLeg  -44.2216 4.76701 -3.33967
RightLeg  58.8037 -5.86052 -10.8148
RightFoot  -13.8762 0.000599511 4.31169
RightToes  5.82063e-011 0 -3.6325e-017
Spine  46.0934 -1.2027 8.11451
Spine1  -5.65994 4.51284 -11.2041
HEad  -48.88 -19.6301 10.9598
LeftShoulder1  -0.120096 1.84206 17.9491
LeftArm  88.2914 -76.9419 -167.486
LeftForeArm  145.119 -77.0845 -133.048
LeftHand  -0.858794 1.92473 28.4653
RightShoulder  -0.469539 4.06189 -16.8167
RightArm  -22.426 83.2792 51.0307
RightForeArm  25.3118 -6.78057 5.60579
RightHand  0.44763 -9.1059 -14.7129
LeftUpLeg  -42.1301 -6.06053 -7.38441
LeftLeg  56.3503 7.59085 12.5717
LeftFoot  -15.6416 -0.0955227 -5.10077
LeftToes  -1.1369e-010 2.7689e-011 -1.90827e-011
247
root  10.8703 35.5184 -0.225359 -30.1956 -84.3535 36.2767
RightUpLeg  -43.0432 5.02214 -3.78913
RightLeg  50.727 -5.44208 -7.46205
RightFoot  -10.5759 -0.10155 4.35528
RightToes  5.82063e-011 0 -3.6325e-017
Spine  45.3946 -1.06268 7.43106
Spine1  -8.25393 3.84237 -9.50583
HEad  -48.3451 -19.5952 10.1058
LeftShoulder1  -0.124006 1.64741 17.2547
LeftArm  88.1208 -77.4423 -167.364
LeftForeArm  146.422 -76.6247 -135.02
LeftHand  -0.874968 1.91427 28.8981
RightShoulder  -0.488418 3.40986 -17.8916
RightArm  -37.2482 83.5005 33.8363
RightForeArm  25.1571 -6.80878 5.76776
RightHand  0.41529 -8.84955 -14.7153
LeftUpLeg  -40.8188 -6.97706 -6.8059
LeftLeg  49.5662 11.609 14.6329
LeftFoot  -11.7962 0.0460536 -4.95485
LeftToes  -1.1369e-010 2.7689e-011 -1.90827e-011
248
root  10.9149 36.4297 0.343265 -71.0008 -86.9714 79.4074
RightUpLeg  -42.3789 4.98172 -3.79133
RightLeg  43.5395 -3.71291 -4.07344
RightFoot  -7.43314 -0.207176 4.58463
RightToes  5.82063e-011 0 -3.6325e-017
Spine  44.6537 -0.865579 7.03886
Spine1  -10.0531 3.6119 -8.66132
HEad  -47.5172 -19.4684 9.91718
LeftShoulder1  -0.0740102 2.35416 17.0648
LeftArm  91.3982 -77.5101 -171.271
LeftForeArm  146.842 -76.6261 -135.104
LeftHand  -0.913194 1.85079 29.6011
RightShoulder  -0.5283 2.06573 -20.6238
RightArm  -78.3473 84.2318 -10.4459
RightForeArm  23.3553 -6.75988 5.3855
RightHand  0.352907 -8.28203 -15.0311
LeftUpLeg  -40.4632 -8.49342 -5.51558
LeftLeg  44.5169 15.2159 15.8827
LeftFoot  -8.3454 0.129532 -3.12423
LeftToes  -1.1369e-010 2.7689e-011 -1.90827e-011
249
root  10.9398 36.9553 0.887149 -140.039 -85.6095 150.199
RightUpLeg  -42.3717 4.79331 -3.64356
RightLeg  38.6833 -0.943878 -1.06491
RightFoot  -4.85298 -0.30435 4.78502
RightToes  5.82063e-011 0 -3.6325e-017
Spine  44.2527 -0.4999 6.9463
Spine1  -11.0798 3.88497 -8.71296
HEad  -46.7526 -19.6705 10.1619
LeftShoulder1  -0.0400536 2.94504 17.8159
LeftArm  97.5885 -77.3616 -178.802
LeftForeArm  147.389 -76.8117 -134.578
LeftHand  -0.92665 1.85745 30.0794
RightShoulder  -0.522682 1.09751 -22.7644
RightArm  -113.277 79.484 -51.7567
RightForeArm  18.2821 -6.75568 5.20416
RightHand  0.307895 -7.86769 -15.3661
LeftUpLeg  -41.1935 -10.6989 -3.6333
LeftLeg  41.5627 14.9415 14.1604
LeftFoot  -6.38659 0.107134 -1.47923
LeftToes  -1.1369e-010 2.7689e-011 -1.90827e-011
250
root  10.9457 37.0526 1.37382 -154.983 -81.7481 165.99
RightUpLeg  -43.1731 4.96753 -3.63084
RightLeg  37.2689 1.66584 1.12302
RightFoot  -3.47874 -0.354188 4.8121
RightToes  5.82063e-011 0 -3.6325e-017
Spine  44.4645 -0.234526 7.12246
Spine1  -11.5551 4.2658 -9.50958
HEad  -46.627 -20.1297 10.7494
LeftShoulder1  -0.0308436 3.12012 18.8101
LeftArm  104.534 -77.0588 173.012
LeftForeArm  148.919 -76.6716 -135.407
LeftHand  -0.910154 1.90565 29.9543
RightShoulder  -0.412045 -0.179294 -24.0884
RightArm  -120.97 72.3869 -66.5567
RightForeArm  10.9538 -6.69407 4.81906
RightHand  0.272227 -7.56489 -15.555
LeftUpLeg  -42.5251 -12.8203 -1.66792
LeftLeg  40.5778 10.301 9.68801
LeftFoot  -6.53581 0.158315 -2.94663
LeftToes  -1.1369e-010 2.7689e-011 -1.90827e-011
